<svg xmlns="http://www.w3.org/2000/svg" viewBox="0 0 512 512" fill="none">
  <rect width="512" height="512" rx="128" fill="#0f172a"/>
  <path d="M144 144h224v224H144z" fill="none"/>
  <path d="M368 176h-32v-32c0-17.67-14.33-32-32-32h-96c-17.67 0-32 14.33-32 32v32h-32c-17.67 0-32 14.33-32 32v128c0 17.67 14.33 32 32 32h32v32c0 17.67 14.33 32 32 32h96c17.67 0 32-14.33 32-32v-32h32c17.67 0 32-14.33 32-32V208c0-17.67-14.33-32-32-32zm-160-32h96v32h-96v-32zm96 256h-96v-32h96v32zm128-64h-32v-96h32v96zM112 336H80V240h32v96z" fill="#10b981"/>
  <circle cx="256" cy="256" r="192" stroke="#10b981" stroke-width="32" fill="none" opacity="0.2"/>
</svg>
